# Blender 3.3.1
# www.blender.org
mtllib markerCone.mtl
o Cylinder
v 0.000000 0.500000 -0.100000
v 0.000000 0.216814 0.100000
v 0.042298 0.212647 0.100000
v 0.097545 0.490393 -0.100000
v 0.082971 0.200310 0.100000
v 0.191342 0.461940 -0.100000
v 0.120455 0.180274 0.100000
v 0.277785 0.415735 -0.100000
v 0.153310 0.153310 0.100000
v 0.353554 0.353554 -0.100000
v 0.180274 0.120455 0.100000
v 0.415735 0.277785 -0.100000
v 0.200310 0.082971 0.100000
v 0.461940 0.191342 -0.100000
v 0.212647 0.042298 0.100000
v 0.490393 0.097545 -0.100000
v 0.216814 0.000000 0.100000
v 0.500000 0.000000 -0.100000
v 0.212647 -0.042298 0.100000
v 0.490393 -0.097545 -0.100000
v 0.200310 -0.082971 0.100000
v 0.461940 -0.191342 -0.100000
v 0.180274 -0.120455 0.100000
v 0.415735 -0.277785 -0.100000
v 0.153310 -0.153310 0.100000
v 0.353554 -0.353554 -0.100000
v 0.120455 -0.180274 0.100000
v 0.277785 -0.415735 -0.100000
v 0.082971 -0.200310 0.100000
v 0.191342 -0.461940 -0.100000
v 0.042298 -0.212647 0.100000
v 0.097545 -0.490393 -0.100000
v 0.000000 -0.216814 0.100000
v 0.000000 -0.500000 -0.100000
v -0.042298 -0.212647 0.100000
v -0.097545 -0.490393 -0.100000
v -0.082971 -0.200310 0.100000
v -0.191342 -0.461940 -0.100000
v -0.120455 -0.180274 0.100000
v -0.277785 -0.415735 -0.100000
v -0.153310 -0.153310 0.100000
v -0.353554 -0.353554 -0.100000
v -0.180274 -0.120455 0.100000
v -0.415735 -0.277785 -0.100000
v -0.200310 -0.082971 0.100000
v -0.461940 -0.191342 -0.100000
v -0.212647 -0.042298 0.100000
v -0.490393 -0.097545 -0.100000
v -0.216814 0.000000 0.100000
v -0.500000 0.000000 -0.100000
v -0.212647 0.042298 0.100000
v -0.490393 0.097545 -0.100000
v -0.200310 0.082971 0.100000
v -0.461940 0.191342 -0.100000
v -0.180274 0.120455 0.100000
v -0.415735 0.277785 -0.100000
v -0.153310 0.153310 0.100000
v -0.353554 0.353554 -0.100000
v -0.120455 0.180274 0.100000
v -0.277785 0.415735 -0.100000
v -0.082971 0.200310 0.100000
v -0.191342 0.461940 -0.100000
v 0.205090 -0.000186 0.100000
v -0.042298 0.212647 0.100000
v 0.189866 -0.076723 0.100000
v 0.171384 -0.111300 0.100000
v 0.146512 -0.141608 0.100000
v 0.116205 -0.166480 0.100000
v 0.081627 -0.184962 0.100000
v 0.044108 -0.196343 0.100000
v 0.005091 -0.200187 0.100000
v -0.033928 -0.196343 0.100000
v -0.071446 -0.184962 0.100000
v -0.106023 -0.166480 0.100000
v -0.136331 -0.141608 0.100000
v -0.161204 -0.111300 0.100000
v -0.179686 -0.076723 0.100000
v -0.191067 -0.039205 0.100000
v -0.194909 -0.000186 0.100000
v -0.191067 0.038831 0.100000
v -0.179686 0.076350 0.100000
v -0.161204 0.110927 0.100000
v -0.136331 0.141235 0.100000
v -0.106023 0.166108 0.100000
v -0.071446 0.184590 0.100000
v -0.033928 0.195971 0.100000
v 0.005091 0.199814 0.100000
v 0.044108 0.195971 0.100000
v 0.081627 0.184590 0.100000
v 0.116205 0.166108 0.100000
v 0.146512 0.141235 0.100000
v 0.171384 0.110927 0.100000
v 0.189866 0.076350 0.100000
v 0.201247 0.038831 0.100000
v 0.201247 -0.039205 0.100000
v -0.097545 0.490393 -0.100000
v 0.201247 0.038831 -0.100000
v 0.189866 0.076350 -0.100000
v 0.171384 0.110927 -0.100000
v 0.146512 0.141235 -0.100000
v 0.116205 0.166108 -0.100000
v 0.081627 0.184590 -0.100000
v 0.044108 0.195971 -0.100000
v 0.005091 0.199814 -0.100000
v -0.033928 0.195971 -0.100000
v -0.071446 0.184590 -0.100000
v -0.106023 0.166108 -0.100000
v -0.136331 0.141235 -0.100000
v -0.161204 0.110927 -0.100000
v -0.179686 0.076350 -0.100000
v -0.191067 0.038831 -0.100000
v -0.194909 -0.000186 -0.100000
v -0.191067 -0.039205 -0.100000
v -0.179686 -0.076723 -0.100000
v -0.161204 -0.111300 -0.100000
v -0.136331 -0.141608 -0.100000
v -0.106023 -0.166480 -0.100000
v -0.071446 -0.184962 -0.100000
v -0.033928 -0.196343 -0.100000
v 0.005091 -0.200187 -0.100000
v 0.044108 -0.196343 -0.100000
v 0.081627 -0.184962 -0.100000
v 0.116205 -0.166480 -0.100000
v 0.146512 -0.141608 -0.100000
v 0.171384 -0.111300 -0.100000
v 0.189866 -0.076723 -0.100000
v 0.201247 -0.039205 -0.100000
v 0.205090 -0.000186 -0.100000
vn 0.0567 0.5760 0.8155
vn 0.1680 0.5538 0.8155
vn 0.2728 0.5104 0.8155
vn 0.3671 0.4474 0.8155
vn 0.4474 0.3671 0.8155
vn 0.5104 0.2728 0.8155
vn 0.5538 0.1680 0.8155
vn 0.5760 0.0567 0.8155
vn 0.5760 -0.0567 0.8155
vn 0.5538 -0.1680 0.8155
vn 0.5104 -0.2728 0.8155
vn 0.4474 -0.3671 0.8155
vn 0.3671 -0.4474 0.8155
vn 0.2728 -0.5104 0.8155
vn 0.1680 -0.5538 0.8155
vn 0.0567 -0.5760 0.8155
vn -0.0567 -0.5760 0.8155
vn -0.1680 -0.5538 0.8155
vn -0.2728 -0.5104 0.8155
vn -0.3671 -0.4474 0.8155
vn -0.4474 -0.3671 0.8155
vn -0.5104 -0.2728 0.8155
vn -0.5538 -0.1680 0.8155
vn -0.5760 -0.0567 0.8155
vn -0.5760 0.0567 0.8155
vn -0.5538 0.1680 0.8155
vn -0.5104 0.2728 0.8155
vn -0.4474 0.3671 0.8155
vn -0.3671 0.4474 0.8155
vn -0.2728 0.5104 0.8155
vn -0.0000 -0.0000 1.0000
vn -0.1680 0.5538 0.8155
vn -0.0567 0.5760 0.8155
vn -0.0000 -0.0000 -1.0000
vn -0.0980 -0.9952 -0.0000
vn -0.2903 -0.9569 -0.0000
vn -0.4714 -0.8819 -0.0000
vn -0.6344 -0.7730 -0.0000
vn -0.7730 -0.6344 -0.0000
vn -0.8819 -0.4714 -0.0000
vn -0.9569 -0.2903 -0.0000
vn -0.9952 -0.0980 -0.0000
vn -0.9952 0.0980 -0.0000
vn -0.9569 0.2903 -0.0000
vn -0.8819 0.4714 -0.0000
vn -0.7730 0.6344 -0.0000
vn -0.6344 0.7730 -0.0000
vn -0.4714 0.8819 -0.0000
vn -0.2903 0.9569 -0.0000
vn -0.0980 0.9952 -0.0000
vn 0.0980 0.9952 -0.0000
vn 0.2903 0.9569 -0.0000
vn 0.4714 0.8819 -0.0000
vn 0.6344 0.7730 -0.0000
vn 0.7730 0.6344 -0.0000
vn 0.8819 0.4714 -0.0000
vn 0.9569 0.2903 -0.0000
vn 0.9952 0.0980 -0.0000
vn 0.9952 -0.0980 -0.0000
vn 0.9569 -0.2903 -0.0000
vn 0.8819 -0.4714 -0.0000
vn 0.7730 -0.6344 -0.0000
vn 0.6344 -0.7730 -0.0000
vn 0.4714 -0.8819 -0.0000
vn 0.2903 -0.9569 -0.0000
vn 0.0980 -0.9952 -0.0000
vt 1.000000 0.500000
vt 0.000000 0.500000
vt 0.750000 0.490000
vt 1.000000 1.000000
vt 0.250000 0.490000
vt 0.000000 1.000000
vt 0.968750 1.000000
vt 0.296822 0.485388
vt 0.968750 0.500000
vt 0.796822 0.485388
vt 0.937500 1.000000
vt 0.341844 0.471731
vt 0.937500 0.500000
vt 0.841844 0.471731
vt 0.906250 1.000000
vt 0.383337 0.449553
vt 0.906250 0.500000
vt 0.883337 0.449553
vt 0.875000 1.000000
vt 0.419706 0.419706
vt 0.875000 0.500000
vt 0.919706 0.419706
vt 0.843750 1.000000
vt 0.449553 0.383337
vt 0.843750 0.500000
vt 0.949553 0.383337
vt 0.812500 1.000000
vt 0.471731 0.341844
vt 0.812500 0.500000
vt 0.971731 0.341844
vt 0.781250 1.000000
vt 0.485388 0.296822
vt 0.781250 0.500000
vt 0.985388 0.296822
vt 0.750000 1.000000
vt 0.490000 0.250000
vt 0.750000 0.500000
vt 0.990000 0.250000
vt 0.718750 1.000000
vt 0.485388 0.203178
vt 0.718750 0.500000
vt 0.985388 0.203178
vt 0.687500 1.000000
vt 0.471731 0.158156
vt 0.687500 0.500000
vt 0.971731 0.158156
vt 0.656250 1.000000
vt 0.449553 0.116663
vt 0.656250 0.500000
vt 0.949553 0.116663
vt 0.625000 1.000000
vt 0.419706 0.080294
vt 0.625000 0.500000
vt 0.919706 0.080294
vt 0.593750 1.000000
vt 0.383337 0.050447
vt 0.593750 0.500000
vt 0.883337 0.050447
vt 0.562500 1.000000
vt 0.341844 0.028269
vt 0.562500 0.500000
vt 0.841844 0.028269
vt 0.531250 1.000000
vt 0.296822 0.014612
vt 0.531250 0.500000
vt 0.796822 0.014612
vt 0.500000 1.000000
vt 0.250000 0.010000
vt 0.500000 0.500000
vt 0.750000 0.010000
vt 0.468750 1.000000
vt 0.203178 0.014612
vt 0.468750 0.500000
vt 0.703178 0.014612
vt 0.437500 1.000000
vt 0.158156 0.028269
vt 0.437500 0.500000
vt 0.658156 0.028269
vt 0.406250 1.000000
vt 0.116663 0.050447
vt 0.406250 0.500000
vt 0.616663 0.050447
vt 0.375000 1.000000
vt 0.080294 0.080294
vt 0.375000 0.500000
vt 0.580294 0.080294
vt 0.343750 1.000000
vt 0.050447 0.116663
vt 0.343750 0.500000
vt 0.550447 0.116663
vt 0.312500 1.000000
vt 0.028269 0.158156
vt 0.312500 0.500000
vt 0.528269 0.158156
vt 0.281250 1.000000
vt 0.014612 0.203178
vt 0.281250 0.500000
vt 0.514612 0.203178
vt 0.250000 1.000000
vt 0.010000 0.250000
vt 0.250000 0.500000
vt 0.510000 0.250000
vt 0.218750 1.000000
vt 0.014612 0.296822
vt 0.218750 0.500000
vt 0.514612 0.296822
vt 0.187500 1.000000
vt 0.028269 0.341844
vt 0.187500 0.500000
vt 0.528269 0.341844
vt 0.156250 1.000000
vt 0.050447 0.383337
vt 0.156250 0.500000
vt 0.550447 0.383337
vt 0.125000 1.000000
vt 0.080294 0.419706
vt 0.125000 0.500000
vt 0.580294 0.419706
vt 0.093750 1.000000
vt 0.116663 0.449553
vt 0.093750 0.500000
vt 0.616663 0.449553
vt 0.158156 0.471731
vt 0.062500 1.000000
vt 0.062500 0.500000
vt 0.658156 0.471731
vt 0.477023 0.249793
vt 0.750000 0.744470
vt 0.203178 0.485388
vt 0.031250 1.000000
vt 0.460171 0.165072
vt 0.687500 0.744470
vt 0.439713 0.126797
vt 0.656250 0.744470
vt 0.412180 0.093248
vt 0.625000 0.744470
vt 0.378632 0.065716
vt 0.593750 0.744470
vt 0.340357 0.045257
vt 0.562500 0.744470
vt 0.298826 0.032659
vt 0.531250 0.744470
vt 0.255635 0.028405
vt 0.500000 0.744470
vt 0.212444 0.032659
vt 0.468750 0.744470
vt 0.170913 0.045257
vt 0.437500 0.744470
vt 0.132638 0.065716
vt 0.406250 0.744470
vt 0.099090 0.093248
vt 0.375000 0.744470
vt 0.071557 0.126797
vt 0.343750 0.744470
vt 0.051099 0.165072
vt 0.312500 0.744470
vt 0.038500 0.206603
vt 0.281250 0.744470
vt 0.034246 0.249794
vt 0.250000 0.744470
vt 0.038500 0.292984
vt 0.218750 0.744470
vt 0.051099 0.334515
vt 0.187500 0.744470
vt 0.071557 0.372790
vt 0.156250 0.744470
vt 0.099090 0.406339
vt 0.125000 0.744470
vt 0.132638 0.433871
vt 0.093750 0.744470
vt 0.170913 0.454330
vt 0.062500 0.744470
vt 0.212444 0.466928
vt 0.031250 0.744470
vt 0.255635 0.471182
vt 1.000000 0.744470
vt 0.000000 0.744470
vt 0.298826 0.466928
vt 0.968750 0.744470
vt 0.340357 0.454330
vt 0.937500 0.744470
vt 0.378632 0.433871
vt 0.906250 0.744470
vt 0.412180 0.406339
vt 0.875000 0.744470
vt 0.439713 0.372790
vt 0.843750 0.744470
vt 0.460171 0.334515
vt 0.812500 0.744470
vt 0.472769 0.292984
vt 0.781250 0.744470
vt 0.472769 0.206603
vt 0.718750 0.744470
vt 0.031250 0.500000
vt 0.703178 0.485388
vt 0.846599 0.268639
vt 0.781250 0.644470
vt 0.841136 0.286648
vt 0.812500 0.644470
vt 0.832264 0.303245
vt 0.843750 0.644470
vt 0.820326 0.317793
vt 0.875000 0.644470
vt 0.805778 0.329731
vt 0.906250 0.644470
vt 0.789181 0.338603
vt 0.937500 0.644470
vt 0.771172 0.344066
vt 0.968750 0.644470
vt 0.752443 0.345910
vt 1.000000 0.644470
vt 0.000000 0.644470
vt 0.733715 0.344066
vt 0.031250 0.644470
vt 0.715706 0.338603
vt 0.062500 0.644470
vt 0.699109 0.329731
vt 0.093750 0.644470
vt 0.684561 0.317793
vt 0.125000 0.644470
vt 0.672622 0.303245
vt 0.156250 0.644470
vt 0.663751 0.286648
vt 0.187500 0.644470
vt 0.658288 0.268639
vt 0.218750 0.644470
vt 0.656443 0.249910
vt 0.250000 0.644470
vt 0.658288 0.231182
vt 0.281250 0.644470
vt 0.663751 0.213173
vt 0.312500 0.644470
vt 0.672622 0.196576
vt 0.343750 0.644470
vt 0.684561 0.182028
vt 0.375000 0.644470
vt 0.699109 0.170089
vt 0.406250 0.644470
vt 0.715706 0.161218
vt 0.437500 0.644470
vt 0.733715 0.155755
vt 0.468750 0.644470
vt 0.752443 0.153910
vt 0.500000 0.644470
vt 0.771172 0.155755
vt 0.531250 0.644470
vt 0.789181 0.161218
vt 0.562500 0.644470
vt 0.805778 0.170089
vt 0.593750 0.644470
vt 0.820326 0.182028
vt 0.625000 0.644470
vt 0.832265 0.196576
vt 0.656250 0.644470
vt 0.841136 0.213173
vt 0.687500 0.644470
vt 0.846599 0.231182
vt 0.718750 0.644470
vt 0.848444 0.249910
vt 0.750000 0.644470
s 1
usemtl Material.001
f 1/1/1 2/4/1 3/7/1 4/9/1
f 4/9/2 3/7/2 5/11/2 6/13/2
f 6/13/3 5/11/3 7/15/3 8/17/3
f 8/17/4 7/15/4 9/19/4 10/21/4
f 10/21/5 9/19/5 11/23/5 12/25/5
f 12/25/6 11/23/6 13/27/6 14/29/6
f 14/29/7 13/27/7 15/31/7 16/33/7
f 16/33/8 15/31/8 17/35/8 18/37/8
f 18/37/9 17/35/9 19/39/9 20/41/9
f 20/41/10 19/39/10 21/43/10 22/45/10
f 22/45/11 21/43/11 23/47/11 24/49/11
f 24/49/12 23/47/12 25/51/12 26/53/12
f 26/53/13 25/51/13 27/55/13 28/57/13
f 28/57/14 27/55/14 29/59/14 30/61/14
f 30/61/15 29/59/15 31/63/15 32/65/15
f 32/65/16 31/63/16 33/67/16 34/69/16
f 34/69/17 33/67/17 35/71/17 36/73/17
f 36/73/18 35/71/18 37/75/18 38/77/18
f 38/77/19 37/75/19 39/79/19 40/81/19
f 40/81/20 39/79/20 41/83/20 42/85/20
f 42/85/21 41/83/21 43/87/21 44/89/21
f 44/89/22 43/87/22 45/91/22 46/93/22
f 46/93/23 45/91/23 47/95/23 48/97/23
f 48/97/24 47/95/24 49/99/24 50/101/24
f 50/101/25 49/99/25 51/103/25 52/105/25
f 52/105/26 51/103/26 53/107/26 54/109/26
f 54/109/27 53/107/27 55/111/27 56/113/27
f 56/113/28 55/111/28 57/115/28 58/117/28
f 58/117/29 57/115/29 59/119/29 60/121/29
f 60/121/30 59/119/30 61/124/30 62/125/30
f 63/127/31 17/36/31 15/32/31 13/28/31 11/24/31 9/20/31 7/16/31 5/12/31 3/8/31 2/5/31 64/129/31 61/123/31 59/120/31 57/116/31 55/112/31 53/108/31 51/104/31 49/100/31 47/96/31 45/92/31 43/88/31 41/84/31 39/80/31 37/76/31 35/72/31 33/68/31 31/64/31 29/60/31 27/56/31 25/52/31 23/48/31 21/44/31 65/131/31 66/133/31 67/135/31 68/137/31 69/139/31 70/141/31 71/143/31 72/145/31 73/147/31 74/149/31 75/151/31 76/153/31 77/155/31 78/157/31 79/159/31 80/161/31 81/163/31 82/165/31 83/167/31 84/169/31 85/171/31 86/173/31 87/175/31 88/178/31 89/180/31 90/182/31 91/184/31 92/186/31 93/188/31 94/190/31
f 65/131/31 21/44/31 19/40/31 17/36/31 63/127/31 95/192/31
f 62/125/32 61/124/32 64/130/32 96/194/32
f 96/194/33 64/130/33 2/6/33 1/2/33
f 96/195/34 1/3/34 4/10/34 6/14/34 8/18/34 10/22/34 12/26/34 14/30/34 16/34/34 97/196/34 98/198/34 99/200/34 100/202/34 101/204/34 102/206/34 103/208/34 104/210/34 105/213/34 106/215/34 107/217/34 108/219/34 109/221/34 110/223/34 111/225/34 112/227/34 113/229/34 114/231/34 115/233/34 116/235/34 117/237/34 118/239/34 119/241/34 120/243/34 121/245/34 32/66/34 34/70/34 36/74/34 38/78/34 40/82/34 42/86/34 44/90/34 46/94/34 48/98/34 50/102/34 52/106/34 54/110/34 56/114/34 58/118/34 60/122/34 62/126/34
f 97/196/34 16/34/34 18/38/34 20/42/34 22/46/34 24/50/34 26/54/34 28/58/34 30/62/34 32/66/34 121/245/34 122/247/34 123/249/34 124/251/34 125/253/34 126/255/34 127/257/34 128/259/34
f 103/209/35 88/179/35 87/176/35 104/211/35
f 102/207/36 89/181/36 88/179/36 103/209/36
f 101/205/37 90/183/37 89/181/37 102/207/37
f 100/203/38 91/185/38 90/183/38 101/205/38
f 92/187/39 91/185/39 100/203/39 99/201/39
f 93/189/40 92/187/40 99/201/40 98/199/40
f 94/191/41 93/189/41 98/199/41 97/197/41
f 63/128/42 94/191/42 97/197/42 128/260/42
f 95/193/43 63/128/43 128/260/43 127/258/43
f 65/132/44 95/193/44 127/258/44 126/256/44
f 66/134/45 65/132/45 126/256/45 125/254/45
f 67/136/46 66/134/46 125/254/46 124/252/46
f 68/138/47 67/136/47 124/252/47 123/250/47
f 69/140/48 68/138/48 123/250/48 122/248/48
f 70/142/49 69/140/49 122/248/49 121/246/49
f 71/144/50 70/142/50 121/246/50 120/244/50
f 72/146/51 71/144/51 120/244/51 119/242/51
f 73/148/52 72/146/52 119/242/52 118/240/52
f 74/150/53 73/148/53 118/240/53 117/238/53
f 75/152/54 74/150/54 117/238/54 116/236/54
f 115/234/55 76/154/55 75/152/55 116/236/55
f 114/232/56 77/156/56 76/154/56 115/234/56
f 113/230/57 78/158/57 77/156/57 114/232/57
f 112/228/58 79/160/58 78/158/58 113/230/58
f 111/226/59 80/162/59 79/160/59 112/228/59
f 110/224/60 81/164/60 80/162/60 111/226/60
f 109/222/61 82/166/61 81/164/61 110/224/61
f 108/220/62 83/168/62 82/166/62 109/222/62
f 107/218/63 84/170/63 83/168/63 108/220/63
f 106/216/64 85/172/64 84/170/64 107/218/64
f 105/214/65 86/174/65 85/172/65 106/216/65
f 104/212/66 87/177/66 86/174/66 105/214/66
