# Blender 3.3.1
# www.blender.org
mtllib Refree.mtl
o Cube
v 1.000000 1.000000 1.000000
v 1.000000 1.000000 -1.000000
v 1.000000 -1.000000 1.000000
v 1.000000 -1.000000 -1.000000
v -1.000000 1.000000 1.000000
v -1.000000 1.000000 -1.000000
v -1.000000 -1.000000 1.000000
v -1.000000 -1.000000 -1.000000
vn -0.0000 -0.0000 1.0000
vn -0.0000 -1.0000 -0.0000
vn -1.0000 -0.0000 -0.0000
vn -0.0000 -0.0000 -1.0000
vn 1.0000 -0.0000 -0.0000
vn -0.0000 1.0000 -0.0000
vt 0.375463 0.544560
vt 0.626980 0.544560
vt 0.625000 0.788155
vt 0.622556 0.544560
vt 0.376980 0.544560
vt 0.375000 0.788155
vt 0.373483 0.791589
vt 0.623020 0.540568
vt 0.625000 0.791589
vt 0.373020 0.540568
vt 0.620576 0.791589
vt 0.375000 0.791589
vt 0.625463 0.544560
vt 0.625000 0.789177
vt 0.619059 0.541126
vt 0.375000 0.789177
vt 0.372556 0.544560
vt 0.369059 0.541126
vt 0.625463 0.794560
vt 0.623020 0.790568
vt 0.625000 0.539177
vt 0.373020 0.790568
vt 0.375000 0.539177
vt 0.372556 0.794560
s 0
usemtl Material
f 1/1/1 5/13/1 7/19/1 3/7/1
f 4/10/2 3/8/2 7/20/2 8/22/2
f 8/23/3 7/21/3 5/14/3 6/16/3
f 6/17/4 2/4/4 4/11/4 8/24/4
f 2/5/5 1/2/5 3/9/5 4/12/5
f 6/18/6 5/15/6 1/3/6 2/6/6
