# Blender v3.3.1 OBJ File: ''
# www.blender.org
mtllib Refree.mtl
o Cube.001
v 1.000000 -1.000000 1.000000
v -1.000000 -1.000000 1.000000
v -1.000000 -1.000000 -1.000000
v 1.000000 -1.000000 -1.000000
v 1.000000 1.000000 -1.000000
v -1.000000 1.000000 -1.000000
v -1.000000 1.000000 1.000000
v 1.000000 1.000000 1.000000
vt 0.621723 0.795532
vt 0.371737 0.793559
vt 0.375243 0.543573
vt 0.627168 0.548532
vt 0.373020 0.540568
vt 0.623020 0.540568
vt 0.623020 0.790568
vt 0.373020 0.790568
vt 0.375000 0.539177
vt 0.625000 0.539177
vt 0.625000 0.789177
vt 0.375000 0.789177
vt 0.582908 0.789788
vt 0.332909 0.789139
vt 0.336030 0.542116
vt 0.584062 0.539789
vt 0.625606 0.791246
vt 0.375608 0.791936
vt 0.376374 0.544904
vt 0.626372 0.544213
vt 0.369059 0.541126
vt 0.619059 0.541126
vt 0.625000 0.788155
vt 0.375000 0.788155
vn 0.0000 -1.0000 -0.0000
vn 0.0000 0.0000 -1.0000
vn -1.0000 0.0000 0.0000
vn 0.0000 1.0000 0.0000
vn 1.0000 -0.0000 0.0000
vn 0.0000 -0.0000 1.0000
usemtl Material.001
s 1
f 1/1/1 2/2/1 3/3/1 4/4/1
f 5/5/2 4/6/2 3/7/2 6/8/2
f 6/9/3 3/10/3 2/11/3 7/12/3
f 7/13/4 8/14/4 5/15/4 6/16/4
f 8/17/5 1/18/5 4/19/5 5/20/5
f 7/21/6 2/22/6 1/23/6 8/24/6
