# Blender 3.3.1
# www.blender.org
mtllib YellowCard.mtl
o YellowCard
v -0.200000 -0.200000 0.700000
v -0.200000 -0.200000 1.300000
v -0.200000 0.200000 0.700000
v -0.200000 0.200000 1.300000
v -0.000000 -0.200000 0.700000
v -0.000000 -0.200000 1.300000
v -0.000000 0.200000 0.700000
v -0.000000 0.200000 1.300000
v -0.100000 0.200000 0.700000
v -0.100000 0.200000 1.300000
v -0.100000 -0.200000 0.700000
v -0.100000 -0.200000 1.300000
v -0.010496 0.200000 1.300000
v -0.010496 0.200000 0.700000
v -0.010496 -0.200000 0.700000
v -0.010496 -0.200000 1.300000
vn -0.0000 -0.0000 -1.0000
vn -1.0000 -0.0000 -0.0000
vn -0.0000 -1.0000 -0.0000
vn 1.0000 -0.0000 -0.0000
vn -0.0000 -0.0000 1.0000
vn -0.0000 1.0000 -0.0000
vt 0.375000 0.750000
vt 0.625000 0.750000
vt 0.375000 0.500000
vt 0.625000 0.500000
vt 0.625000 0.500000
vt 0.375000 0.500000
vt 0.375000 0.750000
vt 0.625000 0.750000
s 0
usemtl Material
f 8/4/1 6/2/1 16/8/1 13/5/1
f 7/3/2 5/1/2 6/2/2 8/4/2
f 7/3/3 8/4/3 13/5/3 14/6/3
f 14/6/4 13/5/4 16/8/4 15/7/4
f 5/1/5 7/3/5 14/6/5 15/7/5
f 6/2/6 5/1/6 15/7/6 16/8/6
